# xmcd CD database file
#
# Track frame offsets:
#	150
#	16187
#	27228
#	40102
#	54487
#	67943
#	79634
#	92760
#	105996
#	119541
#
# Disc length: 1718 seconds
#
# Revision: 0
# Processed by: cddbd v1.5.2PL0 Copyright (c) Steve Scherf et al.
# Submitted via: CDex 1.51
#
DISCID=6e06b40a
DTITLE=Jesse Dayton - One For The Dance Halls
DYEAR=2010
DGENRE=Country
TTITLE0=One For The Dance Halls
TTITLE1=Camden Town
TTITLE2=Lately I've Let Things Slide
TTITLE3=Pretty Girls Make The World Go 'Round
TTITLE4=Back To Back
TTITLE5=Falling Apart
TTITLE6=The Bad 'Ol Days
TTITLE7=The Good Times Are Now
TTITLE8=The Years
TTITLE9=Jesse Dayton - Texas Bound
EXTD=YEAR: 2010
EXTT0=
EXTT1=
EXTT2=
EXTT3=
EXTT4=
EXTT5=
EXTT6=
EXTT7=
EXTT8=
EXTT9=
PLAYORDER=
